<?xml version="1.0" encoding="utf-8"?>
<!-- Generator: Adobe Illustrator 27.3.1, SVG Export Plug-In . SVG Version: 6.00 Build 0)  -->
<svg version="1.1" id="Layer_1" xmlns="http://www.w3.org/2000/svg" xmlns:xlink="http://www.w3.org/1999/xlink" x="0px" y="0px"
	 viewBox="0 0 1024 1024" style="enable-background:new 0 0 1024 1024;" xml:space="preserve">
<style type="text/css">
	.st0{fill:#FFFFFF;stroke:#FFFFFF;stroke-miterlimit:10;}
	.st1{fill:#273D88;}
</style>
<g>
	<path class="st0" d="M222.9,800.8l128.3-544.8c4.6-19.5,18.6-32.9,34.5-32.9h169.1H723c43.2,0,78.2,45,78.2,100.4V451
		c0,105.1-67,191.2-148.8,191.2H440.6l0,0l-18.7,79.4L411,767.9c-4.6,19.5-18.6,32.9-34.5,32.9H222.9h115.7"/>
	<path class="st0" d="M376.5,802H222.9v-1.2l-0.9-0.3l128.3-544.8c4.8-20.2,19-33.7,35.4-33.7H723c43.6,0,79.1,45.6,79.1,101.6V451
		c0,106-67.2,192.3-149.7,192.3H441.3l-29.4,125C407.1,788.5,392.9,802,376.5,802L376.5,802z M338.7,799.7h37.8
		c15.6,0,29.1-12.9,33.6-32.1L439.9,641h212.4c81.6,0,147.9-85.2,147.9-190V323.6c0-54.7-34.7-99.3-77.3-99.3H385.7
		c-15.6,0-29.1,12.9-33.6,32.1L224.2,799.7H338.7z"/>
</g>
<g>
	<polygon class="st1" points="549.8,225.5 592.2,379.8 721.2,383.2 618.4,483.4 653.8,640.4 549.8,547.4 442.9,640.4 481.2,483.4 
		378.3,383.2 507.4,379.8 	"/>
	<path class="st1" d="M441.3,643.3l38.9-159.5L375.7,382.1l131-3.4l43-156.6l43,156.6l131,3.4L619.4,483.8l36,159.4l-105.6-94.4
		L441.3,643.3L441.3,643.3z M380.9,384.3l101.3,98.7l-37.7,154.7L549.8,546l0.5,0.5l102,91.1l-34.9-154.6l101.3-98.7l-127.1-3.3
		L549.8,229l-41.7,151.9h-0.6C507.4,380.9,380.9,384.3,380.9,384.3z"/>
</g>
</svg>
