<?xml version="1.0" encoding="UTF-8"?>
<svg id="Layer_1" data-name="Layer 1" xmlns="http://www.w3.org/2000/svg" viewBox="0 0 321.71 250.44">
  <g>
    <path d="m.48,249.94L71.65,14.71C74.2,6.27,81.97.5,90.79.5h93.8s93.27,0,93.27,0c23.95,0,43.36,19.41,43.36,43.36v55c0,45.4-37.14,82.54-82.54,82.54h-117.46s0,0,0,0l-10.37,34.27-6.07,20.06c-2.55,8.44-10.33,14.21-19.14,14.21H.48s64.2,0,64.2,0" fill="#273d88"/>
    <path d="m85.63,250.44H.48v-.5l-.48-.14L71.17,14.56c2.64-8.71,10.52-14.56,19.62-14.56h187.07c24.18,0,43.86,19.67,43.86,43.86v55c0,45.79-37.25,83.04-83.04,83.04h-117.08l-16.33,53.98c-2.63,8.71-10.52,14.56-19.62,14.56Zm-20.96-1h20.96c8.66,0,16.16-5.57,18.66-13.85l16.55-54.69h117.83c45.24,0,82.04-36.8,82.04-82.04v-55c0-23.63-19.23-42.86-42.86-42.86H90.79c-8.66,0-16.16,5.57-18.66,13.85L1.15,249.44h63.52Z" fill="#273d88"/>
  </g>
  <g>
    <polygon points="181.78 1.52 205.3 68.14 276.89 69.6 219.83 112.86 239.5 180.66 181.78 140.5 122.5 180.68 143.74 112.86 86.68 69.6 158.27 68.14 181.78 1.52" fill="#fff"/>
    <path d="m121.59,181.9l21.57-68.85-57.93-43.92,72.69-1.48L181.78.01l23.87,67.63,72.69,1.48-57.94,43.92,19.97,68.83-58.59-40.77-60.19,40.79Zm-33.47-111.83l56.2,42.6-20.92,66.79,58.38-39.57.28.2,56.56,39.35-19.37-66.77,56.19-42.6-70.5-1.44L181.78,3.02l-23.15,65.61h-.35s-70.16,1.44-70.16,1.44Z" fill="#fff"/>
  </g>
</svg>