<?xml version="1.0" encoding="UTF-8"?>
<svg id="Layer_1" data-name="Layer 1" xmlns="http://www.w3.org/2000/svg" viewBox="0 0 829.1 417.24">
  <g>
    <path d="m248.17,249.94L319.34,14.71c2.55-8.44,10.33-14.21,19.14-14.21h93.8s93.27,0,93.27,0c23.95,0,43.36,19.41,43.36,43.36v55c0,45.4-37.14,82.54-82.54,82.54h-117.46s0,0,0,0l-10.37,34.27-6.07,20.06c-2.55,8.44-10.33,14.21-19.14,14.21h-85.16s64.2,0,64.2,0" fill="#fff"/>
    <path d="m333.33,250.44h-85.16v-.5l-.48-.14L318.86,14.56c2.64-8.71,10.52-14.56,19.62-14.56h187.07c24.18,0,43.86,19.67,43.86,43.86v55c0,45.79-37.25,83.04-83.04,83.04h-117.08l-16.33,53.98c-2.63,8.71-10.52,14.56-19.62,14.56Zm-20.96-1h20.96c8.66,0,16.16-5.57,18.66-13.85l16.55-54.69h117.83c45.24,0,82.04-36.8,82.04-82.04v-55c0-23.63-19.23-42.86-42.86-42.86h-187.07c-8.66,0-16.16,5.57-18.66,13.85l-70.97,234.59h63.52Z" fill="#fff"/>
  </g>
  <g>
    <polygon points="429.48 1.52 452.99 68.14 524.58 69.6 467.52 112.86 487.19 180.66 429.48 140.5 370.19 180.68 391.44 112.86 334.37 69.6 405.97 68.14 429.48 1.52" fill="#273d88"/>
    <path d="m369.29,181.9l21.57-68.85-57.93-43.92,72.69-1.48L429.48.01l23.87,67.63,72.69,1.48-57.94,43.92,19.97,68.83-58.59-40.77-60.19,40.79Zm-33.47-111.83l56.2,42.6-20.92,66.79,58.38-39.57.28.2,56.56,39.35-19.37-66.77,56.19-42.6-70.5-1.44L429.48,3.02l-23.15,65.61h-.35s-70.16,1.44-70.16,1.44Z" fill="#273d88"/>
  </g>
  <g>
    <path d="m0,271.64h73.54c16.02,0,28.01,3.81,35.99,11.43,7.97,7.62,11.96,18.46,11.96,32.52s-4.35,25.75-13.04,33.89c-8.69,8.14-21.96,12.21-39.79,12.21h-24.22v53.12H0v-143.16Zm44.43,61.04h10.84c8.53,0,14.52-1.48,17.97-4.44,3.45-2.96,5.18-6.75,5.18-11.38s-1.5-8.3-4.49-11.43c-3-3.12-8.63-4.69-16.89-4.69h-12.6v31.93Z" fill="#fff"/>
    <path d="m215.65,391.17h-50.22l-6.98,23.63h-45.17l53.81-143.16h48.25l53.8,143.16h-46.33l-7.16-23.63Zm-9.18-30.96l-15.8-51.46-15.64,51.46h31.44Z" fill="#fff"/>
    <path d="m283.5,271.64h41.31l53.91,79.21v-79.21h41.7v143.16h-41.7l-53.61-78.61v78.61h-41.6v-143.16Z" fill="#fff"/>
    <path d="m521.78,362.95v-29.79h68.36v61.04c-13.09,8.92-24.66,14.99-34.72,18.21s-21.99,4.83-35.79,4.83c-16.99,0-30.84-2.9-41.55-8.69-10.71-5.79-19.01-14.42-24.9-25.88-5.89-11.46-8.84-24.61-8.84-39.45,0-15.62,3.22-29.21,9.67-40.77,6.45-11.56,15.88-20.33,28.32-26.32,9.7-4.62,22.75-6.93,39.16-6.93s27.65,1.43,35.5,4.3c7.84,2.87,14.36,7.31,19.53,13.33,5.18,6.02,9.07,13.66,11.67,22.9l-42.68,7.62c-1.76-5.4-4.74-9.54-8.94-12.4-4.2-2.86-9.55-4.3-16.06-4.3-9.7,0-17.43,3.37-23.19,10.11s-8.64,17.4-8.64,31.98c0,15.5,2.91,26.56,8.74,33.2,5.83,6.64,13.95,9.96,24.37,9.96,4.95,0,9.67-.72,14.16-2.15,4.49-1.43,9.63-3.87,15.43-7.32v-13.48h-29.59Z" fill="#fff"/>
    <path d="m709.57,271.64h44.14v85.29c0,8.46-1.32,16.44-3.96,23.96-2.64,7.51-6.77,14.09-12.4,19.71-5.63,5.63-11.54,9.58-17.72,11.86-8.59,3.19-18.91,4.78-30.96,4.78-6.97,0-14.57-.49-22.8-1.46-8.24-.98-15.12-2.91-20.65-5.81-5.53-2.89-10.6-7.01-15.19-12.34-4.59-5.33-7.73-10.83-9.42-16.49-2.73-9.11-4.1-17.17-4.1-24.2v-85.29h44.14v87.33c0,7.81,2.16,13.91,6.49,18.29,4.33,4.39,10.33,6.59,18.02,6.59s13.59-2.16,17.92-6.49c4.33-4.33,6.49-10.46,6.49-18.39v-87.33Z" fill="#fff"/>
    <path d="m784.77,271.64h44.34v143.16h-44.34v-143.16Z" fill="#fff"/>
  </g>
</svg>