<svg xmlns="http://www.w3.org/2000/svg" viewBox="0 0 100 100">
  <defs>
    <clipPath id="c">
      <path d="M50 88C40 87 22 80 14 68C7 56 8 40 16 30L10 6L28 20C36 17 44 15 50 15C56 15 64 17 72 20L90 6L84 30C92 40 93 56 86 68C78 80 60 87 50 88Z"/>
    </clipPath>
  </defs>

  <!-- Puma head silhouette -->
  <path
    d="M50 88C40 87 22 80 14 68C7 56 8 40 16 30L10 6L28 20C36 17 44 15 50 15C56 15 64 17 72 20L90 6L84 30C92 40 93 56 86 68C78 80 60 87 50 88Z"
    fill="#A0622D"
  />

  <!-- Cordillera de Los Andes, clipped to puma head -->
  <g clip-path="url(#c)">
    <polyline
      points="14,76 20,70 26,73 32,63 38,67 44,56 50,40 56,56 62,67 68,63 74,73 80,70 86,76"
      fill="none"
      stroke="#FAF8F5"
      stroke-width="3.5"
      stroke-linecap="round"
      stroke-linejoin="round"
    />
  </g>
</svg>
